<?xml version="1.0" standalone="no"?>
<!DOCTYPE svg PUBLIC "-//W3C//DTD SVG 20010904//EN"
 "http://www.w3.org/TR/2001/REC-SVG-20010904/DTD/svg10.dtd">
<svg version="1.0" xmlns="http://www.w3.org/2000/svg"
 width="782.000000pt" height="782.000000pt" viewBox="0 0 782.000000 782.000000"
 preserveAspectRatio="xMidYMid meet">
<metadata>
Created by potrace 1.11, written by Peter Selinger 2001-2013
</metadata>
<g transform="translate(0.000000,782.000000) scale(0.100000,-0.100000)"
fill="#000000" stroke="none">
<path d="M2233 5356 c-68 -22 -134 -65 -193 -125 -30 -31 -68 -67 -84 -81
l-29 -25 7 35 c21 102 17 114 -42 113 -90 -2 -127 -67 -250 -444 -99 -302
-152 -507 -168 -659 -4 -38 -15 -325 -15 -370 4 -224 41 -415 107 -555 33 -69
127 -157 215 -202 58 -29 73 -33 165 -34 95 -2 103 -1 165 30 106 54 182 122
265 238 111 155 271 530 309 723 2 8 12 60 24 115 42 202 49 281 46 495 -4
250 -10 306 -40 392 -45 131 -125 233 -248 315 -63 42 -78 48 -132 50 -33 1
-79 -3 -102 -11z m73 -432 c188 -89 271 -387 208 -754 -27 -159 -29 -168 -80
-285 -93 -217 -174 -367 -249 -460 -66 -82 -174 -130 -235 -105 -82 34 -153
238 -164 471 -3 53 -9 115 -15 137 -8 30 -8 56 2 103 7 35 10 82 7 104 -15
103 -2 238 35 379 27 104 34 149 29 181 -3 26 -1 52 6 66 29 56 162 155 247
184 53 18 146 9 209 -21z"/>
<path d="M7156 5349 c-68 -23 -109 -52 -186 -129 -30 -30 -66 -64 -79 -75
l-24 -20 7 40 c4 22 10 49 12 61 11 44 -30 60 -98 38 -53 -16 -115 -138 -174
-342 -14 -48 -36 -114 -49 -147 -28 -71 -111 -367 -125 -445 -6 -30 -12 -66
-15 -80 -11 -56 -29 -377 -26 -460 9 -221 15 -262 64 -425 51 -172 112 -244
282 -337 22 -12 61 -17 135 -19 101 -3 107 -2 170 30 162 82 272 212 395 467
90 185 180 455 209 629 43 255 45 269 41 485 -6 290 -13 338 -73 460 -45 93
-157 210 -248 258 -74 38 -130 41 -218 11z m77 -418 c57 -24 121 -81 153 -136
26 -45 62 -142 69 -190 3 -16 8 -43 11 -58 10 -48 12 -219 4 -277 -9 -60 -14
-93 -31 -190 -22 -123 -194 -495 -289 -622 -89 -120 -205 -174 -277 -129 -74
47 -139 252 -148 471 -1 41 -8 97 -14 123 -9 36 -8 59 0 90 6 23 10 69 9 102
-8 191 -6 214 20 331 15 66 31 134 37 151 6 17 9 57 7 88 -4 64 4 86 53 133
42 40 157 115 198 129 43 15 145 6 198 -16z"/>
<path d="M3236 5315 c-21 -7 -58 -33 -82 -56 -70 -69 -98 -153 -108 -329 -3
-47 -8 -122 -12 -166 -5 -65 -2 -101 16 -180 29 -129 79 -269 133 -380 61
-125 73 -144 149 -247 63 -86 223 -257 240 -257 4 0 14 -13 22 -28 18 -34 13
-69 -21 -172 -14 -41 -27 -102 -30 -135 -2 -33 -9 -73 -15 -88 -18 -46 -15
-120 6 -151 18 -28 20 -28 90 -24 81 5 154 35 191 80 12 15 44 69 70 120 58
116 107 167 156 163 19 -2 80 -7 136 -10 95 -6 107 -5 156 18 29 13 77 30 107
37 82 18 131 51 186 124 27 36 56 68 64 71 39 14 71 52 74 88 7 66 -9 66 -156
-4 l-133 -62 -110 -5 c-193 -9 -233 -7 -256 14 -17 16 -19 25 -13 64 3 25 8
126 9 225 l2 180 50 95 c28 52 63 131 78 175 15 44 35 91 44 105 29 41 135
228 191 335 29 55 59 112 67 127 8 15 17 43 20 63 9 54 -13 67 -106 60 -88 -6
-63 17 -266 -253 -77 -102 -148 -190 -157 -196 -25 -15 -51 13 -98 106 -45 90
-146 240 -193 291 -18 18 -79 68 -136 112 -95 72 -110 80 -175 91 -92 17 -142
16 -190 -1z m272 -184 c77 -39 137 -112 231 -280 29 -51 61 -103 72 -114 10
-12 19 -26 20 -31 4 -61 19 -136 31 -156 17 -26 3 -61 -56 -147 -53 -77 -80
-163 -57 -177 5 -3 26 12 47 34 32 34 74 53 74 35 0 -3 -16 -37 -35 -75 -19
-38 -35 -74 -35 -80 0 -24 -74 -162 -92 -171 -23 -12 -43 -1 -108 62 -113 110
-210 243 -273 378 -35 75 -41 97 -44 166 -1 44 -11 120 -22 169 -32 151 -21
274 32 353 41 61 133 76 215 34z"/>
<path d="M535 5293 c-51 -21 -134 -73 -201 -127 -54 -43 -72 -79 -114 -216
-24 -82 -31 -120 -21 -120 4 0 13 -12 19 -26 10 -21 8 -37 -14 -97 -55 -154
-86 -257 -109 -372 -40 -200 -46 -278 -48 -582 -1 -202 1 -246 16 -288 44
-127 148 -180 352 -179 66 0 140 3 165 8 92 16 146 22 163 18 26 -5 38 -44 26
-84 -5 -18 -12 -81 -15 -140 -3 -59 -7 -117 -9 -128 -8 -43 -19 -209 -18 -273
2 -72 19 -107 52 -107 22 0 63 28 117 80 42 40 45 46 39 80 -4 22 2 82 14 146
33 176 40 221 46 309 6 93 47 193 94 230 14 11 58 39 98 61 79 45 202 131 204
142 13 82 0 122 -42 122 -16 0 -57 -13 -91 -29 -174 -79 -190 -66 -153 129 34
182 108 535 119 570 8 25 17 62 21 83 6 35 3 42 -29 72 -40 37 -130 75 -178
75 -66 0 -134 -81 -143 -171 -7 -67 -13 -109 -25 -179 -15 -87 -23 -162 -35
-315 -3 -33 -7 -76 -10 -95 -13 -98 -17 -126 -20 -178 -2 -31 -4 -60 -4 -63
-1 -13 -36 -20 -111 -25 -41 -3 -85 -7 -97 -10 -13 -2 -58 3 -100 12 -43 9
-90 18 -105 19 -43 6 -87 33 -108 68 -16 26 -19 45 -15 107 6 99 11 123 52
265 19 66 45 161 58 210 13 50 33 122 46 160 13 39 24 72 24 75 1 6 59 192 90
285 12 39 50 145 84 236 33 91 61 177 61 190 0 14 -7 35 -16 47 -19 27 -70 29
-129 5z"/>
<path d="M5305 5135 c-44 -8 -89 -20 -99 -26 -11 -6 -50 -26 -87 -45 -37 -19
-77 -47 -89 -64 -28 -39 -62 -144 -61 -189 0 -20 0 -49 -1 -66 -3 -83 1 -106
27 -165 30 -69 70 -130 85 -130 24 0 76 72 92 129 36 122 158 192 338 193 94
0 320 -82 368 -134 69 -75 23 -228 -140 -470 -45 -69 -452 -586 -477 -608 -7
-6 -114 -140 -160 -200 -55 -72 -126 -182 -145 -225 -14 -35 -15 -48 -6 -90 7
-28 13 -57 15 -66 13 -62 92 -106 229 -127 58 -8 324 -8 366 0 33 7 77 13 180
22 25 3 70 13 100 24 30 11 78 23 105 27 127 16 154 27 235 93 66 53 76 67 85
113 14 74 -50 88 -245 54 -51 -10 -497 -10 -570 -1 -58 7 -97 23 -105 44 -7
19 63 130 166 262 45 58 134 179 197 270 63 91 129 183 146 205 122 153 294
480 310 591 10 61 10 165 2 203 -12 52 -63 169 -86 199 -29 37 -219 143 -285
159 -19 4 -31 6 -120 18 -108 14 -294 14 -370 0z"/>
</g>
</svg>
